<?xml version="1.0" encoding="utf-8"?>
<!-- Generator: Adobe Illustrator 27.5.0, SVG Export Plug-In . SVG Version: 6.00 Build 0)  -->
<svg version="1.1" id="Layer_1" xmlns="http://www.w3.org/2000/svg" xmlns:xlink="http://www.w3.org/1999/xlink" x="0px" y="0px"
	 viewBox="0 0 348.45 194.17" style="enable-background:new 0 0 348.45 194.17;" xml:space="preserve">
<style type="text/css">
	.st0{fill:#FFFFFF;}
	.st1{fill:#169D56;}
	.st2{fill:#070707;}
	.st3{fill:#169D55;}
	.st4{fill:#0C0C0C;}
	.st5{fill:#060606;}
	.st6{fill:#080808;}
	.st7{fill:#0B0B0B;}
	.st8{fill:#090909;}
	.st9{fill:#0F0F0F;}
	.st10{fill:#2EA5D7;}
	.st11{fill:#169E55;}
	.st12{fill:#1D9F59;}
	.st13{fill:#F5F7F6;}
	.st14{fill:#F6F8F7;}
	.st15{fill:#F4F7F5;}
	.st16{fill:#46A770;}
</style>
<g>
	<g>
		<path class="st0" d="M241.64,124.51l-0.02,5.03c-0.01,1.77-0.42,8.11-5.55,15.34c-0.31,0.45-0.62,0.9-0.93,1.34
			c-2.1,3.07-7.01,9.26-16.23,16.31c-11.27,8.62-25.32,15.77-41.77,21.27l-0.55,0.18l-0.56,0.13c-0.86,0.19-1.73,0.28-2.61,0.28
			c-1.26,0-2.49-0.2-3.66-0.59c-16.46-5.5-30.51-12.67-41.78-21.28c-9.21-7.05-14.12-13.24-16.22-16.3
			c-0.31-0.46-0.62-0.9-0.93-1.34c-5.12-7.23-5.55-13.58-5.55-15.35l-0.03-5.17l0.92-102.97V9.77h12.44c1,2.9,3.13,4.82,5.67,6.39
			c4.14,2.55,8.73,3.76,13.5,4.43c5.44,0.75,10.86,0.6,16.26-0.46c3.86-0.75,7.54-1.94,10.89-4.03c2.22-1.38,4.28-3.03,5.16-5.58
			c0.1-0.3,0.22-0.54,0.34-0.75h5.26c1.16,3.13,3.59,5.07,6.36,6.65c3.67,2.09,7.68,3.19,11.83,3.83c5.35,0.83,10.69,0.8,16.02-0.09
			c3.96-0.66,7.76-1.78,11.26-3.77c2.39-1.35,4.52-3.03,5.78-5.58c0.16-0.34,0.3-0.68,0.44-1.03h13.3v10.67L241.64,124.51z"/>
	</g>
	<g>
		<g>
			<path class="st1" d="M110.52,49.04c0-8.06,0-16.12,0-24.19c0-2.86,0.02-5.72,0.04-8.58c0-0.21,0.04-0.43,0.07-0.71
				c1.54,0,3.04-0.01,4.55,0c0.91,0.01,1.82,0.01,2.72,0.08c0.23,0.02,0.59,0.21,0.65,0.4c0.94,3.11,3.15,5.13,5.8,6.76
				c4.14,2.55,8.73,3.76,13.49,4.42c5.44,0.75,10.85,0.6,16.24-0.45c3.85-0.75,7.53-1.94,10.87-4.02c2.22-1.38,4.27-3.03,5.15-5.57
				c0.46-1.32,1.1-1.64,2.34-1.48c0.87,0.11,1.76,0.04,2.63,0.09c0.18,0.01,0.46,0.19,0.52,0.35c1.11,3.29,3.61,5.3,6.46,6.93
				c3.67,2.09,7.67,3.19,11.82,3.83c5.34,0.82,10.67,0.79,16-0.1c3.95-0.66,7.74-1.78,11.24-3.76c2.39-1.35,4.52-3.03,5.78-5.57
				c0.3-0.61,0.51-1.27,0.77-1.9c2.74,0,5.49,0,8.28,0c0.03,0.18,0.08,0.34,0.08,0.49c-0.01,11.03-0.03,22.07-0.05,33.1
				c-1.5-0.02-2.99-0.04-4.49-0.05c0.01-0.08,0.04-0.16,0.04-0.24c0.01-9.63,0.02-19.26,0.02-28.9c0-0.24-0.05-0.49-0.09-0.87
				c-0.19,0.24-0.28,0.31-0.32,0.41c-1.53,3.46-4.1,6.01-7.19,8.06c-5.38,3.58-11.42,5.28-17.77,5.9
				c-6.29,0.61-12.51,0.09-18.57-1.8c-4.78-1.49-9.14-3.72-12.7-7.31c-0.69-0.69-1.29-1.47-1.91-2.19c-0.11,0.05-0.17,0.07-0.21,0.1
				c-0.1,0.1-0.19,0.2-0.27,0.31c-2.1,2.92-4.89,5.02-8.03,6.69c-5.2,2.76-10.8,4.12-16.63,4.51c-6.88,0.45-13.6-0.36-20.05-2.92
				c-3.91-1.56-7.47-3.68-10.34-6.83c-0.67-0.74-1.27-1.55-2.05-2.51c0,0.51,0,0.8,0,1.09c-0.01,7.4-0.02,14.81-0.03,22.21
				c0,1.43-0.03,2.85-0.05,4.28C113.73,49.08,112.13,49.06,110.52,49.04z"/>
			<path class="st2" d="M110.52,49.04c1.61,0.02,3.21,0.03,4.82,0.05c0.33,0.02,0.66,0.06,0.99,0.06c38.06,0,76.12,0,114.17,0
				c0.33,0,0.66-0.04,0.99-0.05c1.5,0.02,2.99,0.04,4.49,0.05c0.01,2.97,0.03,5.94,0.03,8.91c0.01,3.99-0.02,7.98,0.01,11.97
				c0.03,3.33,0.12,6.65,0.17,9.98c0.07,4.21,0.13,8.41,0.19,12.62c0.06,4.45,0.12,8.91,0.18,13.36c0.04,2.58,0.08,5.17,0.12,7.75
				c0.09,5.25,0.29,10.5,0.25,15.75c-0.02,3.01-0.75,5.93-2.35,8.56c-2.56,4.21-5.5,8.14-8.86,11.74
				c-3.19,3.42-6.67,6.52-10.42,9.32c-6.37,4.75-13.34,8.45-20.51,11.78c-6.87,3.2-13.91,5.99-21.09,8.42
				c-0.32,0.11-0.76,0.06-1.09-0.06c-8.29-2.86-16.4-6.15-24.29-9.99c-5.53-2.69-10.91-5.66-15.89-9.27
				c-6.99-5.06-13.1-11.03-17.99-18.19c-1.45-2.13-2.99-4.21-3.81-6.7c-0.82-2.49-1.05-5.04-0.99-7.64
				c0.11-4.81,0.16-9.63,0.23-14.44c0.05-3.82,0.09-7.65,0.15-11.47c0.05-3.96,0.12-7.92,0.18-11.88c0.05-3.6,0.12-7.21,0.13-10.81
				c0.04-9.27,0.06-18.53,0.09-27.8C110.42,50.39,110.49,49.72,110.52,49.04z M114.31,74.95c0,1.7,0.02,3.32,0,4.93
				c-0.09,7.26-0.19,14.52-0.29,21.78c-0.06,3.91-0.13,7.81-0.18,11.72c-0.07,5.42-0.19,10.84-0.16,16.26
				c0.01,2.55,0.65,5.01,1.98,7.23c6.14,10.28,14.53,18.29,24.75,24.42c10.21,6.12,21.16,10.66,32.38,14.57
				c0.31,0.11,0.71,0.11,1.02,0.01c10.39-3.6,20.51-7.82,30.1-13.22c10.52-5.93,19.33-13.72,25.93-23.92c1.94-3,3.14-6.17,3.1-9.73
				c-0.08-7.09-0.23-14.19-0.34-21.28c-0.07-4.45-0.13-8.91-0.18-13.36c-0.06-5.34-0.12-10.67-0.18-16.01c-0.01-1.12,0-2.24,0-3.38
				C192.91,74.95,153.72,74.95,114.31,74.95z M111.31,49.9c0,0.38,0,0.65,0,0.93c0,7.4,0,14.81-0.01,22.21c0,1.09,0,1.09,1.1,1.09
				c37.54,0,75.07,0,112.61,0c3.21,0,6.43-0.01,9.64-0.05c0.17,0,0.45-0.3,0.47-0.48c0.06-0.56,0.03-1.14,0.03-1.71
				c0-6.93,0-13.87,0-20.8c0-1.23,0-1.23-1.24-1.23c-40.56,0-81.13,0-121.69,0C111.96,49.86,111.69,49.88,111.31,49.9z
				 M111.32,74.97c-0.05,0.73-0.13,1.38-0.13,2.03c-0.07,5.03-0.12,10.07-0.18,15.1c-0.04,3.32-0.1,6.65-0.15,9.97
				c-0.07,5.31-0.14,10.61-0.22,15.92c-0.04,2.47-0.08,4.95-0.14,7.42c-0.08,3.25-0.16,6.49,0.95,9.62c0.9,2.55,2.5,4.71,4.02,6.88
				c6.93,9.87,15.94,17.38,26.45,23.18c9.84,5.43,20.16,9.76,30.78,13.41c0.4,0.14,0.93,0.1,1.33-0.04
				c9.95-3.45,19.65-7.5,28.96-12.46c10.84-5.77,20.25-13.21,27.48-23.23c1.49-2.07,2.96-4.2,4.08-6.48
				c1.38-2.79,1.69-5.85,1.51-8.99c-0.2-3.48-0.14-6.98-0.19-10.48c-0.06-4.26-0.12-8.53-0.18-12.79
				c-0.11-8.31-0.22-16.61-0.33-24.92c-0.02-1.37,0-2.73,0-4.13c-1.03,0-1.89,0-2.78,0c0.08,3.21,0.17,6.37,0.24,9.53
				c0.11,4.84,0.21,9.68,0.32,14.51c0.16,7.26,0.32,14.52,0.47,21.77c0.05,2.28,0,4.57,0.13,6.85c0.21,3.67-0.52,7.08-2.46,10.23
				c-5.97,9.74-13.97,17.44-23.65,23.41c-10.65,6.56-22.15,11.3-33.93,15.38c-0.28,0.1-0.65,0.08-0.94-0.02
				c-10.38-3.58-20.49-7.78-30.1-13.13c-10.6-5.9-19.51-13.66-26.28-23.81c-2.24-3.36-3.72-6.9-3.63-10.99
				c0.06-2.58,0.11-5.17,0.15-7.75c0.07-4.65,0.12-9.29,0.18-13.94c0.04-3.22,0.1-6.43,0.14-9.65c0.09-7.24,0.17-14.47,0.25-21.71
				c0-0.24-0.03-0.47-0.06-0.73C112.72,74.97,112.07,74.97,111.32,74.97z"/>
			<path class="st3" d="M111.31,49.9c0.38-0.02,0.65-0.04,0.92-0.04c40.56,0,81.13,0,121.69,0c1.24,0,1.24,0,1.24,1.23
				c0,6.93,0,13.87,0,20.8c0,0.57,0.03,1.15-0.03,1.71c-0.02,0.18-0.3,0.47-0.47,0.48c-3.21,0.04-6.43,0.05-9.64,0.05
				c-37.54,0-75.07,0-112.61,0c-1.1,0-1.1,0-1.1-1.09c0-7.4,0-14.81,0.01-22.21C111.31,50.55,111.31,50.28,111.31,49.9z
				 M178.52,58.39c0.14,0.07,0.3,0.11,0.41,0.21c0.4,0.38,0.86,0.42,1.22,0.04c0.15-0.16,0.05-0.57,0.07-0.87
				c-0.41-0.01-0.83-0.02-1.24-0.01c-0.15,0-0.3,0.05-0.45,0.08c-0.41-0.45-0.9-0.46-1.24-0.01c-0.13,0.17-0.05,0.76,0.13,0.89
				C177.81,59,178.28,58.95,178.52,58.39z M190.79,62.03c0-0.25-0.02-0.71,0-1.17c0.03-0.67-0.32-0.99-0.93-1
				c-1.84-0.02-3.68-0.03-5.53,0c-0.71,0.01-1.12,0.41-1.05,1.17c0.06,0.63,0.13,1.27,0.2,1.93c-0.67,0-1.37,0-2.17,0
				c0-0.84,0.03-1.63-0.02-2.42c-0.01-0.22-0.31-0.61-0.44-0.59c-1.33,0.11-2.69,0.15-3.96,0.5c-1.19,0.33-1.76,1.67-1.46,2.7
				c0.25,0.9,1.84,1.87,2.97,1.58c-0.57-0.54-1.56-0.9-1.05-1.95c0.26-0.54,0.8-0.77,1.52-0.6c0,0.78,0,1.54,0,2.37
				c0.38,0.02,0.67,0.04,0.97,0.04c1.84,0,3.69,0,5.53,0c4.32,0,8.64-0.01,12.95,0.01c0.62,0,0.92-0.13,0.86-0.82
				c-0.06-0.66-0.01-1.32-0.01-1.98c-0.02-1.35-0.48-1.87-1.81-1.91c-1.37-0.04-2.75,0-4.12-0.03c-0.51-0.01-0.69,0.2-0.67,0.68
				c0.02,0.58-0.01,1.16,0.02,1.73c0.04,0.53-0.15,0.73-0.7,0.72c-1.81-0.03-3.63,0-5.44-0.04c-0.24,0-0.47-0.21-0.71-0.33
				c0.21-0.21,0.42-0.59,0.64-0.59C187.81,62,189.26,62.03,190.79,62.03z M224.21,62.59c-0.04,0.1-0.08,0.2-0.12,0.3
				c-0.18,0.02-0.37,0.06-0.55,0.06c-6.55,0-13.1-0.02-19.64,0c-0.79,0-1.01-0.29-0.98-1.02c0.04-1.07,0.04-2.15-0.01-3.22
				c-0.01-0.22-0.28-0.62-0.42-0.61c-0.7,0.02-1.4,0.15-2.09,0.26c-0.02,0-0.03,0.15-0.03,0.23c0,1.51-0.04,3.03,0.01,4.54
				c0.03,0.97,0.48,1.35,1.46,1.43c0.27,0.02,0.55,0.03,0.82,0.03c7.92,0,15.84,0,23.76,0c0.32,0,0.63,0,0.97,0
				c-0.26-0.84-0.52-1.53-0.7-2.24c-0.44-1.78-1.24-2.45-3.07-2.48c-1.46-0.02-2.92-0.05-4.37-0.01c-2.23,0.05-1.99-0.47-1.92,2.21
				c0,0.02,0.03,0.05,0,0.01c1.96,0,3.88-0.03,5.79,0.02C223.51,62.13,223.86,62.43,224.21,62.59z M133.41,64.14
				c0.54,0.16,1.03,0.44,1.52,0.44c6.24,0.03,12.48,0.02,18.73,0.02c0.29,0,0.58-0.03,0.95-0.05c0-0.98,0-1.88,0-2.78
				c0-1.33-0.43-1.81-1.75-1.85c-1.37-0.04-2.75,0-4.12-0.03c-0.47-0.01-0.63,0.17-0.62,0.63c0.02,0.79,0.01,1.58,0.01,2.39
				c-0.21,0.05-0.34,0.1-0.47,0.1c-4.54,0.01-9.07,0-13.61,0.02c-0.58,0-0.71-0.28-0.7-0.76c0.02-0.6,0.07-1.21,0.01-1.81
				c-0.02-0.2-0.33-0.53-0.51-0.53c-1.35-0.04-2.7-0.06-4.04,0.01c-1.14,0.06-1.66,0.69-1.69,1.83c-0.01,0.58,0,1.15,0,1.73
				c0,1.14,0,1.14,1.18,1.13c0.83-0.01,1.66,0,2.49,0c0.04,0.12,0.09,0.24,0.13,0.36c-0.53,0.44-1.05,0.87-1.58,1.31
				C131.38,66.96,133.08,66.03,133.41,64.14z M160.16,62.92c0-0.5,0-0.91,0-1.32c-0.02-2.05,0.27-1.67-1.75-1.73
				c-0.53-0.01-0.74,0.14-0.72,0.7c0.04,1.15,0.01,2.31,0.02,3.46c0.01,0.81-0.31,1.43-1.05,1.81c-0.2,0.1-0.38,0.23-0.65,0.4
				c0.98,0.39,1.82,0.3,2.65-0.05c0.98-0.4,1.56-1.1,1.54-2c0.57,0.14,1.09,0.38,1.61,0.39c2.78,0.04,5.55,0.02,8.33,0.02
				c0.32,0,0.63-0.04,0.95-0.05c0.14-1.2-0.06-2.23-0.57-3.2c-0.75-1.44-2.2-1.38-3.76-1.57c0.59-0.55,1-0.93,1.39-1.3
				c-0.96-0.09-1.91,0.27-2.68,0.87c-0.36,0.28-0.83,0.49-1.28,0.55c-1.33,0.16-2.11,1.16-1.73,2.36c1.84-0.32,1.98-0.27,1.94,0.68
				C163.04,62.92,161.66,62.92,160.16,62.92z M125.85,64.62c0-1.12,0.04-2.08-0.01-3.04c-0.05-0.82-0.5-1.45-1.35-1.53
				c-1.2-0.12-2.41-0.13-3.61-0.13c-0.17,0-0.47,0.31-0.49,0.5c-0.07,0.56-0.02,1.14-0.02,1.71c2.83-0.16,2.94-0.13,3.09,0.72
				c-1.45,0-2.89,0-4.34,0c-0.01,1.2,0.26,1.73,1.13,1.76C122.08,64.66,123.91,64.62,125.85,64.62z M222.29,66.84
				c0.32-0.46,0.6-0.71,0.65-1c0.09-0.54-0.34-0.78-0.77-0.67c-0.32,0.08-0.56,0.45-0.83,0.7C221.59,66.14,221.85,66.4,222.29,66.84
				z"/>
			<path class="st4" d="M137.4,46.1c0.7,0.2,1.16-0.05,1.16-0.71c0.02-2.89,0.02-5.78-0.01-8.66c0-0.26-0.28-0.51-0.43-0.77
				c-0.1-0.18-0.3-0.38-0.27-0.53c0.04-0.15,0.3-0.31,0.48-0.33c0.49-0.05,0.98-0.02,1.56-0.02c0.6,2.47,1.19,4.94,1.78,7.4
				c0.07,0,0.14,0.01,0.21,0.01c0.09-0.33,0.19-0.65,0.26-0.98c0.45-1.92,0.92-3.84,1.33-5.78c0.11-0.51,0.28-0.73,0.8-0.67
				c0.24,0.03,0.5-0.04,0.74,0.02c0.27,0.06,0.52,0.21,0.78,0.32c-0.18,0.19-0.38,0.37-0.53,0.58c-0.13,0.18-0.27,0.41-0.27,0.62
				c-0.02,2.92-0.02,5.83,0.01,8.75c0,0.24,0.3,0.47,0.46,0.71c0.11,0.17,0.22,0.34,0.32,0.51c-0.17,0.1-0.34,0.29-0.52,0.3
				c-0.66,0.04-1.32,0.04-1.98,0c-0.18-0.01-0.35-0.2-0.52-0.31c0.11-0.17,0.21-0.34,0.33-0.5c0.13-0.18,0.41-0.34,0.41-0.51
				c0.03-1.63,0.02-3.27-0.16-4.93c-0.27,1.09-0.54,2.19-0.81,3.28c-0.2,0.82-0.37,1.66-0.58,2.47c-0.05,0.19-0.25,0.34-0.39,0.51
				c-0.14-0.16-0.36-0.31-0.4-0.5c-0.38-1.49-0.73-2.99-1.09-4.48c-0.06-0.24-0.15-0.47-0.23-0.7c-0.11,0.01-0.21,0.02-0.32,0.04
				c0,0.32,0,0.65,0,0.97c0,0.85-0.01,1.71,0,2.56c0.01,0.55-0.17,1.18,0.62,1.42c0.08,0.02,0.16,0.32,0.11,0.4
				c-0.09,0.14-0.29,0.29-0.44,0.28c-0.67-0.04-1.34-0.13-2.01-0.19c-0.13-0.01-0.26,0.04-0.4,0.06
				C137.41,46.53,137.41,46.31,137.4,46.1z"/>
			<path class="st2" d="M121.68,41.54c-0.73,0-1.4,0-2.13,0c0,1.34-0.02,2.66,0.02,3.97c0.01,0.19,0.31,0.36,0.46,0.56
				c0.12,0.16,0.22,0.34,0.33,0.5c-0.17,0.1-0.34,0.29-0.52,0.3c-0.66,0.04-1.32,0.04-1.98,0c-0.18-0.01-0.35-0.2-0.52-0.31
				c0.11-0.17,0.21-0.34,0.32-0.51c0.16-0.24,0.46-0.48,0.46-0.73c0.04-2.89,0.04-5.78,0.01-8.67c0-0.24-0.32-0.47-0.49-0.71
				c-0.12-0.17-0.33-0.37-0.3-0.51c0.03-0.15,0.3-0.33,0.47-0.34c0.69-0.04,1.38-0.03,2.06,0.01c0.17,0.01,0.43,0.21,0.46,0.35
				c0.03,0.14-0.18,0.33-0.3,0.49c-0.16,0.21-0.45,0.42-0.46,0.63c-0.05,1.2-0.02,2.41-0.02,3.66c0.72,0,1.39,0,2.14,0
				c0-1.24,0.02-2.44-0.02-3.65c-0.01-0.22-0.31-0.42-0.47-0.63c-0.12-0.16-0.32-0.35-0.3-0.5c0.02-0.15,0.27-0.36,0.43-0.37
				c0.66-0.04,1.32-0.05,1.98,0c0.19,0.01,0.36,0.25,0.54,0.39c-0.12,0.16-0.26,0.31-0.37,0.48c-0.16,0.24-0.44,0.5-0.44,0.75
				c-0.03,2.86-0.03,5.73,0,8.59c0,0.25,0.29,0.51,0.45,0.76c0.11,0.17,0.23,0.33,0.34,0.49c-0.17,0.11-0.33,0.31-0.5,0.32
				c-0.66,0.04-1.32,0.04-1.98,0c-0.17-0.01-0.43-0.19-0.46-0.33c-0.03-0.14,0.19-0.32,0.3-0.49c0.16-0.23,0.45-0.45,0.45-0.68
				C121.71,44.11,121.68,42.85,121.68,41.54z"/>
			<path class="st5" d="M202.33,41.89c0,1.19-0.02,2.38,0.02,3.57c0.01,0.2,0.29,0.39,0.44,0.59c0.12,0.16,0.23,0.32,0.35,0.48
				c-0.19,0.12-0.37,0.32-0.56,0.33c-0.63,0.04-1.26,0.04-1.9,0c-0.18-0.01-0.35-0.19-0.52-0.29c0.1-0.17,0.2-0.34,0.3-0.51
				c0.17-0.28,0.48-0.55,0.49-0.82c0.04-2.83,0.03-5.66,0-8.49c0-0.27-0.32-0.53-0.48-0.79c-0.11-0.17-0.28-0.34-0.29-0.52
				c0-0.11,0.25-0.32,0.39-0.32c1.01,0,2.05-0.09,3.04,0.1c0.96,0.19,1.38,1.09,1.49,1.97c0.18,1.42,0.27,2.86-0.98,3.96
				c-0.12,0.11-0.14,0.46-0.07,0.65c0.39,1.08,0.78,2.15,1.25,3.19c0.18,0.39,0.58,0.68,0.86,1.03c0.12,0.15,0.29,0.36,0.25,0.5
				c-0.04,0.15-0.28,0.32-0.46,0.35c-1.29,0.21-1.51,0.07-1.97-1.15c-0.48-1.29-0.96-2.58-1.44-3.88
				C202.47,41.86,202.4,41.88,202.33,41.89z M202.34,40.57c1.16-0.26,1.59-1.37,1.29-3.14c-0.15-0.86-0.5-1.15-1.29-1.03
				C202.34,37.76,202.34,39.13,202.34,40.57z"/>
			<path class="st5" d="M161.97,35.09c2.86-0.14,3.9,0.75,4.45,3.95c0.29,1.69,0.2,3.4-0.28,5.07c-0.57,1.98-1.59,2.77-3.62,2.77
				c-0.58,0-1.16,0.03-1.73-0.02c-0.2-0.02-0.39-0.2-0.58-0.31c0.11-0.16,0.24-0.32,0.34-0.49c0.16-0.28,0.45-0.56,0.45-0.84
				c0.03-2.83,0.03-5.67,0-8.5c0-0.26-0.33-0.51-0.5-0.76c-0.1-0.15-0.3-0.34-0.27-0.45c0.05-0.17,0.26-0.38,0.42-0.4
				C161.17,35.06,161.69,35.09,161.97,35.09z M162.37,41.01c0,1.32,0,2.63,0,3.95c0,0.71,0.4,1.02,1.04,0.7
				c0.38-0.19,0.77-0.58,0.94-0.97c1.03-2.42,1.03-4.89,0.05-7.33c-0.14-0.35-0.46-0.7-0.79-0.9c-0.77-0.49-1.24-0.21-1.24,0.68
				C162.36,38.43,162.37,39.72,162.37,41.01z"/>
			<path class="st5" d="M137.4,46.1c0,0.22,0.01,0.43,0.01,0.65c-0.53,0.05-1.06,0.13-1.59,0.11c-0.14-0.01-0.33-0.31-0.41-0.51
				c-0.5-1.27-0.97-2.56-1.46-3.83c-0.08-0.22-0.19-0.44-0.37-0.88c0,1.53-0.01,2.82,0.01,4.11c0,0.1,0.23,0.19,0.32,0.31
				c0.13,0.17,0.24,0.36,0.36,0.54c-0.18,0.1-0.35,0.27-0.54,0.28c-0.63,0.03-1.27,0.04-1.9,0c-0.19-0.01-0.37-0.22-0.56-0.33
				c0.12-0.16,0.24-0.32,0.35-0.48c0.16-0.24,0.45-0.49,0.45-0.74c0.03-2.89,0.03-5.78,0-8.66c0-0.23-0.32-0.45-0.48-0.69
				c-0.11-0.16-0.32-0.36-0.29-0.5c0.03-0.15,0.29-0.36,0.45-0.36c0.96-0.01,1.95-0.08,2.88,0.1c0.48,0.1,0.99,0.61,1.25,1.07
				c0.85,1.5,0.55,3.51-0.59,4.83c-0.13,0.15-0.19,0.45-0.13,0.63c0.39,1.11,0.77,2.23,1.26,3.31
				C136.62,45.45,137.07,45.75,137.4,46.1z M133.5,40.55c1.03-0.15,1.59-1.26,1.38-2.66c-0.19-1.31-0.5-1.64-1.38-1.5
				C133.5,37.77,133.5,39.16,133.5,40.55z"/>
			<path class="st5" d="M176.37,35.39c0.88-0.66,1.97-0.42,2.36,0.51c0.71,1.7,1.42,3.39,2.13,5.09c0.12,0.29,0.26,0.56,0.39,0.85
				c0.08-0.02,0.16-0.03,0.24-0.05c0-0.75,0-1.5,0-2.25c0-0.77,0.01-1.54,0-2.31c-0.01-0.54,0.15-1.12-0.63-1.4
				c-0.37-0.13-0.24-0.64,0.18-0.7c0.59-0.08,1.21-0.09,1.8,0.01c0.42,0.07,0.52,0.56,0.13,0.71c-0.68,0.27-0.59,0.77-0.6,1.27
				c-0.01,2.97-0.01,5.94-0.01,8.91c0,0.16,0.04,0.35-0.01,0.49c-0.07,0.18-0.21,0.34-0.32,0.51c-0.14-0.13-0.35-0.23-0.42-0.39
				c-0.83-1.91-1.63-3.83-2.44-5.75c-0.17-0.4-0.36-0.79-0.7-1.17c-0.03,0.19-0.08,0.37-0.08,0.56c-0.01,1.51-0.01,3.02,0,4.54
				c0,0.53-0.1,1.12,0.62,1.36c0.09,0.03,0.19,0.32,0.15,0.41c-0.08,0.14-0.27,0.28-0.43,0.29c-0.52,0.04-1.05,0.04-1.57,0
				c-0.16-0.01-0.42-0.18-0.42-0.28c0-0.18,0.16-0.36,0.25-0.53c0.17-0.3,0.49-0.6,0.49-0.9c0.04-2.64,0.03-5.28,0.03-7.92
				c0-0.88-0.66-1.23-1.3-1.59C176.27,35.57,176.32,35.48,176.37,35.39z"/>
			<path class="st6" d="M130.64,40.91c0.05,1.73-0.22,3.3-1.02,4.76c-0.46,0.84-1.1,1.5-2.11,1.48c-0.96-0.02-1.63-0.62-2.02-1.48
				c-1.39-3.09-1.44-6.21,0.02-9.29c0.41-0.87,1.08-1.56,2.15-1.54c1.08,0.02,1.65,0.78,2.08,1.64
				C130.46,37.89,130.72,39.42,130.64,40.91z M125.83,40.9c0.06,0.01,0.13,0.02,0.19,0.03c0,0.52-0.08,1.06,0.02,1.56
				c0.19,0.99,0.36,2,0.74,2.92c0.35,0.86,1.14,0.82,1.63,0.02c0.11-0.18,0.19-0.39,0.25-0.6c0.74-2.57,0.68-5.14-0.01-7.71
				c-0.15-0.56-0.45-1.24-1.11-1.1c-0.41,0.09-0.91,0.65-1.03,1.09C126.19,38.36,126.05,39.64,125.83,40.9z"/>
			<path class="st7" d="M158.06,40.18c0-1.02,0.01-2.04,0-3.05c-0.01-0.5,0.15-1.08-0.59-1.25c-0.09-0.02-0.22-0.3-0.18-0.4
				c0.05-0.15,0.24-0.35,0.38-0.36c0.57-0.04,1.16-0.05,1.73-0.01c0.15,0.01,0.38,0.19,0.42,0.33c0.04,0.13-0.1,0.44-0.22,0.46
				c-0.65,0.16-0.55,0.66-0.56,1.11c-0.05,2.36-0.06,4.73-0.17,7.09c-0.03,0.66-0.25,1.36-0.57,1.94c-0.86,1.56-2.96,1.56-3.67-0.09
				c-0.46-1.07-0.58-2.33-0.64-3.52c-0.1-1.81-0.03-3.63-0.04-5.45c0-0.45,0.1-0.96-0.58-1.08c-0.11-0.02-0.27-0.35-0.22-0.44
				c0.09-0.16,0.31-0.35,0.48-0.36c0.69-0.04,1.38-0.04,2.06,0.01c0.16,0.01,0.38,0.21,0.44,0.37c0.04,0.12-0.14,0.43-0.24,0.45
				c-0.62,0.08-0.57,0.59-0.56,0.94c0.01,2.5,0.06,5,0.12,7.5c0.01,0.24,0.05,0.52,0.19,0.71c0.23,0.31,0.53,0.72,0.84,0.77
				c0.32,0.04,0.87-0.22,1.01-0.5c0.3-0.59,0.5-1.28,0.55-1.94c0.09-1.07,0.02-2.14,0.02-3.22
				C158.05,40.18,158.05,40.18,158.06,40.18z"/>
			<path class="st5" d="M199.11,35.08c0.22,2.48,0.18,2.73-0.42,2.99c-0.2-0.58-0.24-1.32-0.64-1.67c-0.3-0.27-1.04-0.05-1.65-0.05
				c0,1.2,0,2.42,0,3.65c1.27,0.36,1.39,0.27,1.87-1.48c0.14,0.24,0.4,0.46,0.42,0.71c0.21,2.82,0.09,3.53-0.55,3.71
				c-0.16-0.5-0.22-1.09-0.52-1.48c-0.17-0.22-0.75-0.12-1.21-0.17c0,1.52,0,2.94,0,4.34c1.62,0.35,1.65,0.33,2.69-2.04
				c0.55,0.21,0.55,0.21,0.01,3.3c-1.48,0-2.99,0.01-4.49-0.01c-0.14,0-0.36-0.19-0.38-0.32c-0.02-0.14,0.14-0.31,0.22-0.47
				c0.19-0.34,0.54-0.68,0.55-1.03c0.04-2.72,0.03-5.45,0.02-8.17c0-0.39,0.09-0.86-0.54-0.94c-0.11-0.01-0.29-0.37-0.25-0.51
				c0.04-0.15,0.31-0.32,0.48-0.33C196.17,35.07,197.62,35.08,199.11,35.08z"/>
			<path class="st2" d="M176.37,35.39c-0.05,0.09-0.1,0.17-0.15,0.26c-0.79,0.45-0.85,1.18-0.83,2c0.04,1.9,0.07,3.8-0.02,5.69
				c-0.04,0.88-0.32,1.76-0.61,2.6c-0.29,0.83-1.03,1.23-1.88,1.21c-0.86-0.01-1.58-0.43-1.88-1.24c-0.28-0.73-0.5-1.53-0.53-2.3
				c-0.08-2.11-0.04-4.23-0.07-6.35c-0.01-0.54,0.15-1.19-0.65-1.4c-0.09-0.02-0.19-0.31-0.15-0.41c0.06-0.15,0.25-0.33,0.4-0.34
				c0.71-0.04,1.43-0.04,2.14,0c0.16,0.01,0.41,0.24,0.43,0.39c0.02,0.14-0.22,0.31-0.33,0.47c-0.16,0.24-0.44,0.48-0.44,0.72
				c-0.03,2.42-0.02,4.84,0.01,7.26c0.01,0.45,0.15,0.93,0.34,1.34c0.33,0.73,1.09,0.87,1.59,0.25c0.33-0.4,0.63-0.96,0.65-1.46
				c0.09-2.39,0.09-4.78,0.09-7.17c0-0.41,0.06-0.9-0.56-1.03c-0.1-0.02-0.23-0.29-0.2-0.4c0.05-0.15,0.24-0.37,0.36-0.36
				C174.84,35.18,175.6,35.3,176.37,35.39z"/>
			<path class="st8" d="M210.14,35.25c0.26-0.18,0.45-0.4,0.58-0.37c0.15,0.03,0.34,0.3,0.34,0.47c0.03,1.15,0.04,2.31-0.01,3.46
				c-0.01,0.2-0.29,0.39-0.55,0.72c-0.18-0.91-0.28-1.59-0.45-2.24c-0.09-0.33-0.27-0.67-0.5-0.93c-0.38-0.43-0.78-0.36-1.04,0.16
				c-0.37,0.75-0.33,1.51,0.16,2.18c0.45,0.62,0.96,1.2,1.49,1.76c1.33,1.44,1.55,3.12,1.03,4.92c-0.5,1.72-1.55,2.13-3.07,1.35
				c-0.27,0.13-0.5,0.24-0.74,0.36c-0.1-0.23-0.27-0.46-0.28-0.7c-0.03-0.99-0.04-1.98,0.01-2.97c0.01-0.23,0.27-0.45,0.42-0.68
				c0.12,0.21,0.29,0.4,0.36,0.62c0.2,0.68,0.29,1.39,0.57,2.03c0.12,0.27,0.62,0.58,0.89,0.53c0.27-0.04,0.59-0.47,0.69-0.79
				c0.27-0.86,0.1-1.69-0.47-2.39c-0.38-0.47-0.79-0.92-1.21-1.35c-1.35-1.42-1.58-3.1-1.09-4.89
				C207.72,34.89,208.76,34.49,210.14,35.25z"/>
			<path class="st5" d="M151.11,40.09c0-0.99,0.01-1.98,0-2.97c-0.01-0.5,0.14-1.08-0.61-1.24c-0.09-0.02-0.22-0.3-0.18-0.4
				c0.05-0.15,0.24-0.34,0.37-0.35c0.57-0.04,1.15-0.04,1.73,0c0.15,0.01,0.33,0.2,0.4,0.35c0.04,0.09-0.08,0.35-0.18,0.39
				c-0.7,0.24-0.62,0.83-0.62,1.36c-0.03,2.17,0,4.35-0.09,6.52c-0.03,0.72-0.26,1.46-0.52,2.14c-0.31,0.82-0.99,1.27-1.86,1.28
				c-0.84,0.01-1.62-0.34-1.91-1.17c-0.31-0.89-0.58-1.83-0.63-2.77c-0.09-2.03-0.02-4.07-0.04-6.1c0-0.49,0.13-1.07-0.62-1.22
				c-0.1-0.02-0.22-0.34-0.18-0.47c0.04-0.14,0.26-0.31,0.41-0.31c0.71-0.03,1.43-0.03,2.14,0c0.15,0.01,0.41,0.19,0.41,0.3
				c0.01,0.18-0.15,0.36-0.25,0.54c-0.18,0.32-0.53,0.63-0.53,0.94c0,2.47,0.06,4.94,0.11,7.42c0,0.08,0,0.17,0.03,0.25
				c0.2,0.58,0.24,1.34,1.1,1.33c0.8-0.01,1.19-0.63,1.3-1.28c0.16-1,0.17-2.02,0.22-3.03C151.13,41.08,151.11,40.58,151.11,40.09z"
				/>
			<path class="st6" d="M190.89,42.47c0.39-1.91,0.8-3.81,1.15-5.72c0.04-0.23-0.24-0.52-0.37-0.78c-0.08-0.15-0.25-0.34-0.21-0.45
				c0.07-0.17,0.26-0.4,0.42-0.41c0.49-0.05,1-0.08,1.48,0c0.49,0.09,0.55,0.41,0.29,0.85c-0.28,0.48-0.6,0.97-0.72,1.5
				c-0.65,2.94-1.24,5.89-1.86,8.83c-0.02,0.11-0.04,0.23-0.1,0.31c-0.14,0.19-0.3,0.36-0.45,0.54c-0.14-0.18-0.35-0.33-0.4-0.53
				c-0.3-1.27-0.57-2.56-0.85-3.84c-0.43-1.98-0.86-3.95-1.32-5.92c-0.07-0.31-0.35-0.58-0.53-0.86c-0.1-0.15-0.3-0.33-0.27-0.45
				c0.04-0.17,0.24-0.41,0.39-0.42c0.68-0.05,1.37-0.06,2.06-0.02c0.16,0.01,0.35,0.23,0.44,0.4c0.05,0.1-0.03,0.41-0.1,0.42
				c-0.83,0.19-0.53,0.84-0.45,1.27c0.31,1.58,0.71,3.14,1.07,4.71c0.05,0.19,0.1,0.39,0.15,0.58
				C190.76,42.47,190.83,42.47,190.89,42.47z"/>
			<path class="st8" d="M225.4,39.87c0.33-1.08,0.69-2.16,0.97-3.25c0.05-0.2-0.24-0.48-0.36-0.74c-0.07-0.16-0.2-0.36-0.15-0.49
				c0.05-0.14,0.27-0.28,0.43-0.3c0.52-0.04,1.05-0.04,1.56,0c0.17,0.02,0.39,0.2,0.47,0.37c0.04,0.1-0.14,0.31-0.24,0.46
				c-0.25,0.37-0.62,0.7-0.77,1.11c-0.55,1.49-1.18,2.98-1.47,4.53c-0.25,1.32-0.09,2.73-0.06,4.09c0,0.14,0.3,0.26,0.41,0.42
				c0.11,0.16,0.24,0.36,0.23,0.54c-0.01,0.1-0.28,0.25-0.44,0.26c-0.66,0.03-1.32,0.03-1.98,0c-0.15-0.01-0.37-0.18-0.4-0.31
				c-0.03-0.14,0.1-0.43,0.21-0.46c0.58-0.15,0.44-0.6,0.5-0.99c0.45-3.08-0.91-5.77-1.86-8.55c-0.08-0.24-0.35-0.41-0.49-0.64
				c-0.1-0.17-0.23-0.42-0.17-0.56c0.06-0.14,0.33-0.26,0.52-0.27c0.58-0.04,1.16-0.04,1.73,0c0.21,0.01,0.42,0.19,0.62,0.29
				c-0.1,0.2-0.2,0.4-0.3,0.59c-0.1,0.17-0.32,0.37-0.28,0.51c0.31,1.14,0.67,2.27,1.02,3.41C225.2,39.88,225.3,39.87,225.4,39.87z"
				/>
			<path class="st9" d="M217.8,36.32c-1.5-0.07-0.92,1.27-1.33,1.93c-0.67-0.18-0.82-1.23-0.43-3.13c1.71,0,3.42,0,5.13,0
				c0.37,1.8,0.19,2.97-0.47,3.14c-0.39-0.67,0.11-1.97-1.38-1.94c-0.02,0.24-0.06,0.45-0.06,0.66c0.01,2.75,0.02,5.5,0.04,8.24
				c0,0.37-0.04,0.79,0.51,0.88c0.11,0.02,0.26,0.31,0.23,0.44c-0.03,0.14-0.25,0.32-0.4,0.32c-0.71,0.03-1.43,0.03-2.14,0
				c-0.15-0.01-0.42-0.21-0.41-0.3c0.02-0.18,0.19-0.34,0.3-0.51c0.15-0.25,0.43-0.49,0.44-0.74c0.03-2.89,0.03-5.77,0.03-8.66
				C217.85,36.56,217.82,36.45,217.8,36.32z"/>
			<path class="st6" d="M213.75,46.89c-0.16,0-0.34,0.03-0.49-0.01c-0.33-0.07-0.65-0.17-0.97-0.26c0.18-0.22,0.4-0.42,0.54-0.66
				c0.12-0.2,0.21-0.45,0.22-0.67c0.01-2.86,0.02-5.72-0.01-8.58c0-0.25-0.27-0.5-0.43-0.75c-0.11-0.17-0.35-0.34-0.33-0.48
				c0.02-0.15,0.28-0.36,0.44-0.37c0.68-0.04,1.37-0.04,2.06,0c0.16,0.01,0.37,0.22,0.43,0.39c0.04,0.11-0.16,0.3-0.25,0.46
				c-0.19,0.31-0.53,0.62-0.53,0.94c-0.04,2.78-0.04,5.55,0,8.33c0,0.28,0.29,0.56,0.46,0.84c0.1,0.17,0.22,0.33,0.34,0.49
				c-0.19,0.11-0.37,0.29-0.57,0.33C214.37,46.93,214.05,46.89,213.75,46.89z"/>
			<path class="st2" d="M185.17,46.89c-0.16,0-0.34,0.03-0.49-0.01c-0.33-0.07-0.65-0.17-0.97-0.26c0.19-0.22,0.4-0.42,0.55-0.66
				c0.12-0.2,0.21-0.45,0.22-0.67c0.02-2.86,0.02-5.72-0.01-8.58c0-0.25-0.28-0.5-0.44-0.74c-0.11-0.17-0.35-0.34-0.32-0.49
				c0.02-0.15,0.28-0.36,0.44-0.37c0.68-0.04,1.37-0.04,2.06,0c0.16,0.01,0.37,0.22,0.43,0.39c0.04,0.11-0.15,0.31-0.25,0.46
				c-0.19,0.31-0.53,0.62-0.54,0.93c-0.04,2.78-0.04,5.55,0,8.33c0,0.28,0.3,0.56,0.46,0.84c0.1,0.17,0.22,0.33,0.33,0.49
				c-0.19,0.11-0.37,0.29-0.57,0.33C185.78,46.93,185.47,46.89,185.17,46.89z"/>
			<path class="st10" d="M140.06,107.15c0-9.74,0-19.49,0-29.23c0-0.38-0.01-0.78,0.05-1.15c0.14-0.84,0.61-1.29,1.45-1.29
				c1.18,0,2.36,0.11,3.54,0.11c1.43,0,2.86-0.09,4.29-0.12c1.71-0.03,2.09,0.36,2.09,2.06c0,7.73-0.01,15.47-0.01,23.2
				c0,0.41-0.04,0.88,0.14,1.21c0.2,0.39,0.58,0.74,0.97,0.96c0.28,0.16,0.7,0.11,1.05,0.11c6.91,0.01,13.81,0.01,20.72,0.01
				c1.72,0,2.16-0.41,2.16-2.15c0-2.01-0.1-4.01-0.1-6.02c0-2.39,0.1-4.79,0.09-7.18c-0.01-3.19-0.09-6.38-0.11-9.57
				c-0.02-1.84,0.51-2.33,2.37-2.31c2.26,0.01,4.51,0.02,6.77,0.01c1.37,0,1.65,0.25,1.64,1.64c-0.08,9.69-0.17,19.37-0.26,29.05
				c-0.03,2.83-0.07,5.67-0.13,8.5c-0.04,1.81-0.02,3.63-0.18,5.44c-0.16,1.84-1.12,3.31-3.2,3.95c-2.02,0.62-3.91,0.53-5.6-0.83
				c-1.31-1.05-1.66-2.54-1.68-4.13c-0.02-2.06-0.05-4.13,0-6.19c0.04-1.35-0.37-1.79-1.73-1.79c-7.29-0.03-14.59-0.02-21.88-0.01
				c-1.12,0-1.39,0.33-1.39,1.45c0,8.12,0.01,16.24,0.01,24.36c0,1.31-0.35,1.65-1.68,1.65c-2.5,0.01-5.01,0.01-7.51,0
				c-1.51,0-1.86-0.37-1.86-1.94c0-9.94,0-19.87,0-29.81C140.07,107.15,140.06,107.15,140.06,107.15z"/>
			<path class="st11" d="M194.39,99.01c0-7.16,0-14.31,0-21.47c0-1.69,0.26-1.94,1.98-1.93c2.53,0.01,5.06,0.02,7.6,0.02
				c1.4,0,1.48,0.06,1.48,1.5c0,6.25,0.02,12.5,0,18.75c-0.04,8.58,0,17.17-0.2,25.75c-0.13,5.38-2.56,9.75-6.81,13.05
				c-3.5,2.72-7.55,4.12-11.92,4.71c-3.52,0.48-7.02,0.52-10.5-0.18c-6.44-1.3-11.67-4.63-15.7-9.76c-2.33-2.96-2.78-6.5-2.58-10.16
				c0.06-1,0.89-1.3,1.88-1.31c2.53-0.02,5.05,0.08,7.58,0.04c1.56-0.02,2.06,0.28,2.08,1.82c0.06,4.98,3.42,8.21,7.74,9.61
				c3.27,1.05,6.6,1.15,9.92,0.33c3.89-0.96,7.52-5.22,7.49-9.3C194.35,113.33,194.39,106.17,194.39,99.01z"/>
			<path class="st12" d="M221.75,141.58c-1.03,1.74-2.46,2.37-4.17,2.37c-2.7,0-5.39-0.11-8.09-0.13c-4.73-0.03-9.47-0.02-14.2-0.04
				c-3.13-0.02-6.27-0.1-9.4-0.09c-1.34,0-2.68,0.13-3.88,0.86c-0.89,0.54-1.33,1.34-1.56,2.47c0.35-0.06,0.61-0.06,0.84-0.15
				c2.66-1.07,5.46-1.5,8.3-1.49c3.6,0.01,7.2,0.25,10.8,0.36c1.26,0.04,2.53-0.01,3.79-0.01c2.94,0,5.88,0,8.95,0
				c-0.16,0.22-0.25,0.4-0.38,0.54c-1.32,1.33-2.92,1.73-4.79,1.71c-7.18-0.07-14.37-0.06-21.55,0.02
				c-1.79,0.02-3.57,0.44-4.76,2.03c-0.17,0.23-0.28,0.5-0.55,0.98c7.74-1.06,15.31-0.79,23.04-0.84c-0.92,1.64-2.09,2.69-3.77,2.71
				c-2.69,0.03-5.38-0.16-8.07-0.24c-3.6-0.11-7.21-0.32-10.69,0.87c-1.24,0.42-2.13,1.22-2.44,2.56c-0.13,0.55-0.44,0.8-1.06,0.79
				c-1.87-0.03-3.74-0.02-5.61,0.01c-0.71,0.01-1.23-0.26-1.6-0.82c-1.39-2.12-3.41-2.99-5.88-2.98c-4.87,0.01-9.74,0.01-14.62,0.03
				c-2.02,0.01-3.88-0.6-5.69-1.43c-0.11-0.05-0.2-0.13-0.51-0.35c8.24,0,16.22,0,24.2,0c0.16-1.06-0.25-1.63-1.54-2
				c-2.11-0.61-4.25-1.03-6.48-0.97c-2.23,0.06-4.46-0.04-6.68-0.04c-4.07,0.01-8.15-0.03-12.22,0.08
				c-2.62,0.07-4.92-0.64-7.01-2.15c-0.11-0.08-0.19-0.18-0.38-0.35c11.3,0.47,22.51-0.6,33.83,0.69c-0.32-1.22-1.19-1.66-2.07-1.9
				c-1.02-0.29-2.1-0.5-3.15-0.5c-10.46-0.05-20.92-0.05-31.38-0.05c-2.47,0-4.37-1.16-6.22-2.82c0.31-0.04,0.48-0.08,0.66-0.08
				c7.62-0.01,15.25-0.04,22.87-0.03c4.6,0,9.19,0.03,13.79,0.1c1.96,0.03,3.89,0.32,5.69,1.17c2.28,1.09,3.64,3,4.67,5.23
				c0.52,1.13,1.13,2.22,1.8,3.54c0.36-0.73,0.6-1.21,0.83-1.69c0.61-1.29,1.18-2.6,1.82-3.87c1.32-2.63,3.54-4.05,6.4-4.28
				c2.52-0.2,5.06-0.17,7.59-0.16c9.57,0.04,19.15,0.1,28.72,0.16C220.47,141.4,221.03,141.5,221.75,141.58z"/>
			<path class="st11" d="M169.3,86.7c0,3.16,0.01,6.33,0,9.49c0,1.14-0.4,1.54-1.53,1.54c-2.72,0.01-5.45,0.01-8.17,0
				c-1.28,0-1.69-0.4-1.69-1.68c-0.01-6.24-0.01-12.49,0-18.73c0-1.01,0.38-1.36,1.41-1.36c2.92-0.01,5.83-0.01,8.75-0.02
				c1.03,0,1.24,0.19,1.25,1.27C169.31,80.37,169.3,83.54,169.3,86.7z"/>
			<path class="st13" d="M196.56,63.08c-0.09-0.86-0.51-1.11-1.11-0.95c-0.11,0.03-0.13,0.39-0.2,0.6
				C195.69,62.85,196.12,62.96,196.56,63.08z"/>
			<path class="st14" d="M129.58,63.09c0.46-0.11,0.92-0.21,1.37-0.32c-0.06-0.22-0.09-0.59-0.2-0.62
				C130.18,62.01,129.69,62.16,129.58,63.09z M152.09,62.93c-0.22-0.82-0.45-0.94-1.28-0.71C150.75,63.09,150.86,63.16,152.09,62.93
				z"/>
			<path class="st15" d="M166.92,61.95c0.04,1.08,0.66,1.09,1.27,1.06c0.14-0.01,0.35-0.11,0.38-0.21c0.04-0.11-0.07-0.37-0.17-0.4
				C167.95,62.23,167.48,62.11,166.92,61.95z"/>
			<path class="st16" d="M196.56,63.08c-0.44-0.12-0.87-0.23-1.31-0.35c0.06-0.21,0.09-0.57,0.2-0.6
				C196.05,61.97,196.47,62.22,196.56,63.08z"/>
			<path class="st16" d="M129.58,63.09c0.1-0.94,0.6-1.08,1.18-0.94c0.11,0.03,0.13,0.4,0.2,0.62
				C130.5,62.88,130.04,62.99,129.58,63.09z"/>
			<path class="st16" d="M152.09,62.93c-1.23,0.23-1.34,0.17-1.28-0.71C151.64,61.98,151.87,62.1,152.09,62.93z"/>
			<path class="st16" d="M166.92,61.95c0.56,0.16,1.03,0.28,1.49,0.45c0.1,0.04,0.2,0.29,0.17,0.4c-0.03,0.1-0.25,0.21-0.38,0.21
				C167.57,63.04,166.96,63.03,166.92,61.95z"/>
			<polygon class="st1" points="111.42,15.56 110.57,15.56 110.57,17.08 111.96,17.13 			"/>
			<path class="st1" d="M115.67,15.56h2.76c0,0,0.67,2.82,1.89,3.84l-2.98,0.56L115.67,15.56z"/>
			<polygon class="st1" points="236.02,17.84 236.02,15.56 235.76,15.56 235.84,16.95 			"/>
			<polygon class="st0" points="231.54,22.06 231.54,18.81 231.13,19.5 			"/>
			<path class="st1" d="M231.54,18.81c0,0-0.85,2.29-2.99,4.77l-0.62-1.19l2.25-4.81L231.54,18.81z"/>
			<path class="st1" d="M165.41,22.38c0,0,4.78-2.87,4.79-6.82h5.41c0,0,0.92,3.76,3.94,5.87l-6.09-0.83l-4.66,0.21L165.41,22.38z"
				/>
		</g>
	</g>
</g>
</svg>
