
<svg xmlns="http://www.w3.org/2000/svg" width="60" height="60" viewBox="0 0 60 60">
<defs><style>.a{fill:#00A550;}.b{fill:none;stroke:#fff;stroke-linecap:round;stroke-miterlimit:10;stroke-width:2px;}.c{fill:#fff;}</style></defs><g transform="translate(-10908 -565.75)">
<g transform="translate(10908 565.75)">
<circle class="a" cx="30" cy="30" r="30"/>
<g transform="translate(14.167 14.17)">
<line class="b" x1="4.907" y2="4.907" transform="translate(15.74 3.037)"/>
<line class="b" x1="4.009" transform="translate(15.744 7.948)"/>
<line class="b" y1="4.009" transform="translate(15.744 3.939)"/>
<line class="b" y1="4.907" x2="4.907" transform="translate(23.237 10.533)"/>
<line class="b" x2="4.009" transform="translate(24.131 10.529)"/>
<line class="b" y2="4.009" transform="translate(28.139 10.529)"/>
<path class="c" d="M12.894,778.5v1.492c.044,0,.088,0,.131,0a2.379,2.379,0,0,1,1.711.859l3.938,5.03.017.021a2.351,2.351,0,0,1-.181,3.152l-1.086,1.085a1.492,1.492,0,0,0-.118,1.979,46.934,46.934,0,0,0,8.775,8.77,1.492,1.492,0,0,0,1.924-.174c.369-.376.783-.8,1.119-1.145a2.382,2.382,0,0,1,3.238-.154l.015.013,5.029,4.161a2.293,2.293,0,0,1,.8,1.668,2.545,2.545,0,0,1-.681,1.877l-.017.019c-1,1.085-1.783,1.193-3.475,1.193h-.448A16.138,16.138,0,0,1,27.3,806.5a32.785,32.785,0,0,1-8.972-6.375c-.711-.711-1.4-1.467-2.063-2.256a29.782,29.782,0,0,1-5.38-8.95,12.457,12.457,0,0,1-.954-5.234,3.971,3.971,0,0,1,1.274-3.007l.024-.024a2.378,2.378,0,0,1,1.667-.667V778.5m0,0a3.875,3.875,0,0,0-2.717,1.1,5.435,5.435,0,0,0-1.736,3.976,13.928,13.928,0,0,0,1.037,5.851,31.261,31.261,0,0,0,5.647,9.413q1.028,1.229,2.146,2.346a34.218,34.218,0,0,0,9.38,6.664,17.535,17.535,0,0,0,6.861,1.992l.072,0h.456c1.83,0,3.14-.118,4.57-1.676a4.042,4.042,0,0,0,1.09-2.981,3.79,3.79,0,0,0-1.332-2.734l-5.037-4.168a3.874,3.874,0,0,0-5.275.25c-.334.344-.746.765-1.113,1.139a46.045,46.045,0,0,1-8.462-8.474l1.086-1.086a3.847,3.847,0,0,0,.284-5.149L15.9,779.923a3.876,3.876,0,0,0-2.795-1.417c-.071,0-.142-.006-.213-.006" transform="translate(-8.412 -778.5)"/>
</g></g></g></svg>