<?xml version="1.0" encoding="utf-8"?>
<!-- Generator: Adobe Illustrator 27.5.0, SVG Export Plug-In . SVG Version: 6.00 Build 0)  -->
<svg version="1.1" id="Layer_1" xmlns="http://www.w3.org/2000/svg" xmlns:xlink="http://www.w3.org/1999/xlink" x="0px" y="0px"
	 viewBox="0 0 348.45 194.17" style="enable-background:new 0 0 348.45 194.17;" xml:space="preserve">
<style type="text/css">
	.st0{fill:#149A39;}
	.st1{fill:#0377B4;}
</style>
<g>
	<g>
		<g>
			<g>
				<g>
					<path class="st0" d="M42.72,104.73c-0.51-0.31-0.97-0.52-1.37-0.61c-0.38-0.09-0.7-0.09-0.96,0c-0.26,0.09-0.43,0.27-0.5,0.55
						c-0.09,0.35,0,0.65,0.27,0.91c0.27,0.26,0.72,0.56,1.34,0.92c0.62,0.35,1.12,0.68,1.5,0.98c0.38,0.3,0.67,0.68,0.87,1.15
						c0.2,0.47,0.22,1.03,0.05,1.68c-0.17,0.63-0.48,1.14-0.93,1.52c-0.45,0.38-1,0.62-1.64,0.73c-0.64,0.1-1.33,0.07-2.06-0.1
						c-0.79-0.18-1.53-0.5-2.22-0.96c-0.69-0.46-1.25-1-1.68-1.62l1.36-1.62c0.37,0.57,0.85,1.06,1.42,1.48
						c0.57,0.42,1.12,0.69,1.65,0.82c0.46,0.11,0.83,0.1,1.14-0.01c0.3-0.11,0.49-0.33,0.58-0.65c0.07-0.25,0.04-0.48-0.09-0.69
						c-0.13-0.2-0.31-0.39-0.55-0.56c-0.24-0.16-0.57-0.37-1-0.61c-0.62-0.34-1.12-0.66-1.49-0.95c-0.37-0.29-0.66-0.66-0.87-1.12
						c-0.21-0.46-0.22-1.01-0.05-1.65c0.16-0.59,0.45-1.08,0.89-1.45c0.43-0.38,0.97-0.62,1.6-0.73c0.63-0.11,1.32-0.08,2.08,0.1
						c0.67,0.15,1.3,0.41,1.9,0.76c0.6,0.35,1.11,0.75,1.52,1.19l-1.34,1.66C43.71,105.41,43.24,105.04,42.72,104.73z"/>
				</g>
				<g>
					<path class="st0" d="M58.09,113.21l-0.87-1.91l-4.68,0.35l-0.71,2.03l-2.35,0.18l3.97-10.47l2.35-0.18l4.73,9.81L58.09,113.21z
						 M53.22,109.75l3.19-0.24l-1.75-3.82L53.22,109.75z"/>
				</g>
				<g>
					<path class="st0" d="M64.05,101.65l2.17-0.79l2.56,7.66l4.11-1.5l0.63,1.88l-6.28,2.28L64.05,101.65z"/>
				</g>
				<g>
					<path class="st0" d="M86.19,101.46l-1.73-1.18l-3.94,2.65l0.4,2.08l-1.98,1.33l-1.78-10.86l1.98-1.33l9.12,5.93L86.19,101.46z
						 M80.15,100.99l2.69-1.81l-3.47-2.35L80.15,100.99z"/>
				</g>
				<g>
					<path class="st0" d="M99.26,94.92l-1.42-1.54l-4.4,1.73l-0.08,2.13l-2.22,0.87l0.68-11.07l2.22-0.87l7.51,7.84L99.26,94.92z
						 M93.52,93.13l3-1.18l-2.83-3.08L93.52,93.13z"/>
				</g>
				<g>
					<path class="st0" d="M105.94,82.88l2.54-0.05l3.05,6.19l3.22-6.3l2.53-0.04l-0.17,10.16l-2.05,0.04l0.11-6.87l-2.97,5.89
						l-1.47,0.03l-2.79-5.79l-0.11,6.87l-2.05,0.04L105.94,82.88z"/>
				</g>
			</g>
			<g>
				<g>
					<path class="st1" d="M46.1,100.67c11.51,0.9,22.15-2.21,31.62-9.22c3.54-2.62,10.89-7.45,20.37-10.34
						c6.64-2.02,13.11-2.76,19.36-2.22V68.09c0-5.2-4.22-9.42-9.42-9.42H44.38c-5.2,0-9.42,4.22-9.42,9.42v30.43
						C37.64,99.36,41.5,100.31,46.1,100.67z"/>
				</g>
				<g>
					<path class="st1" d="M87.65,103.53c-11.24,8.33-24.21,12.65-37.8,12.65c-1.94,0-3.9-0.09-5.86-0.27
						c-3.34-0.3-6.38-0.83-9.02-1.43v11.6c0,5.2,4.22,9.42,9.42,9.42h63.64c5.2,0,9.42-4.22,9.42-9.42V94.36
						C103.89,92.51,91.45,100.72,87.65,103.53z"/>
				</g>
			</g>
		</g>
	</g>
	<g>
		<g>
			<g>
				<path class="st0" d="M134.09,113.25c0-0.16,0.02-0.31,0.07-0.47c0.32-0.92,1.15-1.39,2.51-1.39h5.53v2.01l-4.79,0.03
					c-0.4,0.02-0.6,0.17-0.6,0.44v0.63c0,0.07,0.01,0.11,0.02,0.13c0.06,0.24,0.29,0.38,0.68,0.42c0.04,0,0.09,0,0.18,0h1.96
					c0.58,0,1.1,0.11,1.54,0.34c0.67,0.31,1,0.82,1,1.52v1.91c0,0.75-0.35,1.3-1.03,1.65c-0.47,0.23-1.03,0.34-1.68,0.34h-5.37
					v-2.04h4.74c0.42-0.1,0.63-0.29,0.63-0.55v-0.68c0-0.26-0.19-0.41-0.58-0.44h-2.26c-0.91,0-1.62-0.28-2.12-0.84
					c-0.28-0.31-0.42-0.65-0.42-1.02V113.25z"/>
			</g>
			<g>
				<path class="st0" d="M142.82,120.81l3.49-8.27c0.35-0.84,1.06-1.26,2.14-1.26c1.06,0,1.77,0.42,2.12,1.26l3.49,8.27h-2.84
					l-0.86-2.04h-3.84l-0.86,2.04H142.82z M147.33,116.86h2.23l-1.28-3.06L147.33,116.86z"/>
			</g>
			<g>
				<path class="st0" d="M154.82,118.51v-7.12h2.72v6.96c0,0.28,0.23,0.42,0.68,0.42h4.81l-0.02,2.04h-5.03
					c-0.16,0-0.32-0.01-0.46-0.03c-0.96-0.05-1.65-0.26-2.07-0.61C155.03,119.81,154.82,119.26,154.82,118.51z"/>
			</g>
			<g>
				<path class="st0" d="M163.27,120.81l3.49-8.27c0.35-0.84,1.06-1.26,2.14-1.26c1.06,0,1.77,0.42,2.12,1.26l3.49,8.27h-2.84
					l-0.86-2.04h-3.84l-0.86,2.04H163.27z M167.78,116.86h2.23l-1.28-3.06L167.78,116.86z"/>
			</g>
			<g>
				<path class="st0" d="M174.38,120.81l3.49-8.27c0.35-0.84,1.06-1.26,2.14-1.26c1.06,0,1.77,0.42,2.12,1.26l3.49,8.27h-2.84
					l-0.86-2.04h-3.84l-0.86,2.04H174.38z M178.89,116.86h2.23l-1.28-3.06L178.89,116.86z"/>
			</g>
			<g>
				<path class="st0" d="M186.38,120.81v-7.77c0-0.52,0.22-0.95,0.65-1.28c0.43-0.33,1.01-0.5,1.72-0.5c0.23,0,0.47,0.02,0.72,0.05
					c0.88,0.14,1.41,0.53,1.6,1.18l1.58,5.44l1.75-5.44c0.21-0.64,0.74-1.04,1.58-1.18c0.25-0.03,0.49-0.05,0.74-0.05
					c0.7,0,1.27,0.17,1.7,0.5c0.43,0.33,0.65,0.76,0.65,1.28v7.77h-2.58v-6.75l-1.96,5.68c-0.07,0.23-0.16,0.42-0.28,0.58
					c-0.3,0.47-0.81,0.71-1.53,0.71c-0.9,0-1.5-0.43-1.79-1.28l-1.95-5.68v6.75H186.38z"/>
			</g>
			<g>
				<path class="st1" d="M205.67,113.25c0-0.16,0.02-0.31,0.07-0.47c0.32-0.92,1.15-1.39,2.51-1.39h5.53v2.01l-4.79,0.03
					c-0.4,0.02-0.6,0.17-0.6,0.44v0.63c0,0.07,0.01,0.11,0.02,0.13c0.06,0.24,0.29,0.38,0.68,0.42c0.04,0,0.09,0,0.18,0h1.96
					c0.58,0,1.1,0.11,1.54,0.34c0.67,0.31,1,0.82,1,1.52v1.91c0,0.75-0.34,1.3-1.03,1.65c-0.47,0.23-1.03,0.34-1.68,0.34h-5.37
					v-2.04h4.74c0.42-0.1,0.63-0.29,0.63-0.55v-0.68c0-0.26-0.19-0.41-0.58-0.44h-2.26c-0.91,0-1.62-0.28-2.12-0.84
					c-0.28-0.31-0.42-0.65-0.42-1.02V113.25z"/>
			</g>
			<g>
				<path class="st1" d="M215.3,113.41c0-0.16,0.02-0.32,0.07-0.5c0.29-1.01,1.22-1.52,2.79-1.52h3.21c1.88,0,2.82,0.67,2.82,2.01
					v5.36c0,1.36-0.95,2.04-2.84,2.04h-3.19c-0.87,0-1.51-0.12-1.93-0.35c-0.42-0.24-0.7-0.63-0.84-1.19
					c-0.05-0.17-0.07-0.33-0.07-0.47L215.3,113.41z M218.02,114.06l0.02,4.05c0,0.44,0.3,0.65,0.89,0.65h1.67
					c0.6,0,0.89-0.19,0.89-0.58v-4.13c0-0.44-0.3-0.65-0.89-0.65h-1.67C218.32,113.41,218.02,113.63,218.02,114.06z"/>
			</g>
			<g>
				<path class="st1" d="M225.84,120.81v-7.77c0-0.52,0.22-0.95,0.65-1.28c0.43-0.33,1.01-0.5,1.72-0.5c0.23,0,0.47,0.02,0.72,0.05
					c0.88,0.14,1.41,0.53,1.6,1.18l1.58,5.44l1.75-5.44c0.21-0.64,0.74-1.04,1.58-1.18c0.25-0.03,0.49-0.05,0.74-0.05
					c0.7,0,1.27,0.17,1.7,0.5c0.43,0.33,0.65,0.76,0.65,1.28v7.77h-2.58v-6.75l-1.96,5.68c-0.07,0.23-0.16,0.42-0.28,0.58
					c-0.3,0.47-0.81,0.71-1.53,0.71c-0.9,0-1.5-0.43-1.79-1.28l-1.95-5.68v6.75H225.84z"/>
			</g>
			<g>
				<path class="st1" d="M239.28,120.81l3.49-8.27c0.35-0.84,1.06-1.26,2.14-1.26c1.06,0,1.77,0.42,2.12,1.26l3.49,8.27h-2.84
					l-0.86-2.04h-3.84l-0.86,2.04H239.28z M243.79,116.86h2.23l-1.28-3.06L243.79,116.86z"/>
			</g>
			<g>
				<path class="st1" d="M251.28,118.51v-7.12h2.72v6.96c0,0.28,0.23,0.42,0.68,0.42h4.81l-0.02,2.04h-5.03
					c-0.16,0-0.32-0.01-0.46-0.03c-0.96-0.05-1.65-0.26-2.07-0.61C251.49,119.81,251.28,119.26,251.28,118.51z"/>
			</g>
			<g>
				<path class="st1" d="M260.62,120.81v-9.42h2.72v9.42H260.62z"/>
			</g>
			<g>
				<path class="st1" d="M270.08,111.39h6.53c1.25,0,2.03,0.34,2.35,1.02c0.11,0.23,0.16,0.59,0.16,1.1v0.76
					c0,0.91-0.36,1.51-1.09,1.8c0.75,0.24,1.12,0.8,1.12,1.67v0.94c0,1.41-0.89,2.12-2.67,2.12h-6.4V111.39z M272.8,113.41v1.65h3
					c0.42-0.03,0.63-0.2,0.63-0.5v-0.63c0-0.17-0.1-0.32-0.3-0.44c-0.13-0.05-0.24-0.08-0.33-0.08H272.8z M272.8,117.1v1.67h2.98
					c0.41-0.03,0.61-0.21,0.61-0.52v-0.6c0-0.31-0.22-0.5-0.67-0.55H272.8z"/>
			</g>
			<g>
				<path class="st1" d="M279.9,120.81l3.49-8.27c0.35-0.84,1.06-1.26,2.14-1.26c1.06,0,1.77,0.42,2.12,1.26l3.49,8.27h-2.84
					l-0.86-2.04h-3.84l-0.86,2.04H279.9z M284.41,116.86h2.23l-1.28-3.06L284.41,116.86z"/>
			</g>
			<g>
				<path class="st1" d="M291.9,120.81v-7.56c0-0.58,0.21-1.05,0.64-1.41c0.43-0.37,0.96-0.55,1.61-0.55c0.29,0,0.59,0.04,0.89,0.1
					c0.75,0.21,1.25,0.69,1.51,1.44l1.91,5.44v-6.88h2.58v7.8c0,0.49-0.21,0.9-0.63,1.23c-0.42,0.33-0.95,0.51-1.58,0.52
					c-1.22,0.03-2.02-0.5-2.4-1.6l-1.93-5.41v6.88H291.9z"/>
			</g>
			<g>
				<path class="st1" d="M302.69,120.81v-9.42h2.72v9.42H302.69z M305.95,115.14l2.77-3.74h3.1l-3.42,4.63l3.53,4.79h-3.12
					l-2.82-3.79c-0.34-0.45-0.51-0.78-0.51-0.97c0-0.14,0.05-0.3,0.16-0.5L305.95,115.14z"/>
			</g>
		</g>
		<g>
			<g>
				<g>
					<path class="st0" d="M273.36,94.91V87.6c0-0.36-0.04-0.72-0.12-1.07l-0.47-2.02l-1.16,2.04c-0.32,0.55-0.39,1.21-0.22,1.82
						l0.6,2.06c0,0-1.64-0.17-2.66-0.87l0.11-1l0.09-3.07l-0.86,0.84c-0.27,0.27-0.43,0.62-0.46,1l-0.09,1.45
						c0,0-0.33,1.25-1.66,1.55c-0.17,0.04-0.35,0.05-0.53,0.05l-2.62,0.03c-0.83,0.01-1.58-0.55-1.75-1.36
						c-0.01-0.05-0.02-0.09-0.02-0.14V85.6l-0.87-0.13c0,0,0,2.3-0.68,3.28c0,0-1.13,1.64-2.11,1.64l-2.81,0.06
						c-0.31,0.01-0.6-0.15-0.76-0.41c-0.25-0.4-0.52-1.19-0.61-2.71l-0.17-6.92c0,0-0.28-5.66-0.92-6.9l-1.14,2.86
						c-0.38,0.95-0.49,1.98-0.32,2.98c0.06,0.38,0.13,0.82,0.21,1.29c0.25,1.57,0.32,3.17,0.19,4.76c-0.09,1.11-0.28,2.24-0.66,2.86
						c0,0-1.17,2.44-4.02,4.23c-0.79,0.49-1.49,0.94-1.99,1.23c-0.57,0.33-2.34,1.19-2.34,1.19L241,95.56
						c-0.14,0.06-0.23,0.2-0.23,0.35v0.5c0,0.1,0.08,0.19,0.19,0.19h2.88c1.11,0,2.23-0.17,3.27-0.55c1.1-0.4,2.32-1.07,3.03-2.2
						c0,0,1.92-2.64,2.19-4.75c0,0,0.26,2.64,0.6,3.19c0,0,0.42,1.16,0.98,1.96c0.33,0.47,0.87,0.74,1.44,0.74h1.97
						c0,0,2.13-0.06,3.28-2.6c0,0,0.98,2.51,2.11,2.53h3.69c0.57,0,1.14-0.13,1.63-0.42c0.28-0.16,0.56-0.38,0.81-0.69
						C268.82,93.83,271.37,95.26,273.36,94.91z"/>
				</g>
				<g>
					<path class="st0" d="M249.81,88.46c0,0,2.01-2.71-1.76-7.53c-2.9-3.72-5.31-4.7-6.27-4.96c-0.28-0.07-0.56,0.08-0.64,0.36
						c-0.12,0.39-0.22,1.06-0.08,2.12c0.23,1.73,1,3.35,2.27,4.55c0.64,0.6,1.36,1.05,2,0.87c0,0,0.29,0.06,0.34-1.28
						C245.67,82.58,248.47,84.21,249.81,88.46z"/>
				</g>
				<g>
					<path class="st0" d="M240.38,90.36v4.58c0,0-6.69-0.25-8.29,1.39c-0.14,0.14-0.19,0.35-0.14,0.54
						c0.21,0.84,0.85,3.42,1.11,4.43c0.09,0.35,0.15,0.7,0.19,1.05c0.14,1.18,0.29,3.68-0.75,4.83c0,0-0.84-6.43-1.81-9.24
						c-0.19-0.54-0.26-1.11-0.22-1.67c0.11-1.53,0.69-4.2,3.38-4.86l2.55-0.45c0,0-0.07-0.84-1.37-1.79
						c-0.38-0.28-0.89-0.25-1.25,0.05c-0.33,0.29-0.73,0.76-1.09,1.55l-0.66-0.4c0,0,0.85-4.07,2.83-5.19
						C236.85,84.04,240.38,90.36,240.38,90.36z"/>
				</g>
			</g>
			<g>
				<g>
					<polygon class="st1" points="307.3,96.45 310.51,98.62 308.91,102.33 305.62,100.25 					"/>
				</g>
				<g>
					<polygon class="st1" points="300.99,74.54 304.24,76.58 302.62,80.25 299.25,78.3 					"/>
				</g>
				<g>
					<path class="st1" d="M309.09,86.94l1.13-3.98c0,0,1.89,2.36,1.7,5.9l0.01,6.17h-24.51c-0.09,0-0.18,0-0.28,0
						c-0.73,0.01-5.15-0.07-5.86-4.12c-0.08-0.47-0.09-0.95-0.06-1.42c0.08-1.23,0.43-4.01,1.85-5.98l1.02,0.81
						c0,0-3.75,6.13,2.81,6.13h7.83l-1.72-11.37c-0.02-0.1-0.07-0.2-0.15-0.27l-0.64-0.54c-0.11-0.09-0.17-0.23-0.15-0.37l0.09-1.05
						l1.08-3.33c0.07-0.2,0.31-0.28,0.48-0.15l0.23,0.18v0.99c0,0,1.02,1.18,2.04,1.61c0.13,0.06,0.21,0.19,0.2,0.34
						c-0.04,0.5-0.21,1.71-0.88,3.57l-0.23-0.09c0,0-0.19-0.28-0.38-0.06l1.6,10.49h6.51c0,0-0.17-1.79-1.64-3.55l1.11-3.96
						c0,0,2.3,1.98,1.81,7.56h6.53C310.62,90.45,310.6,89.07,309.09,86.94z"/>
				</g>
				<g>
					<path class="st1" d="M290.68,75.85v2.7c0,0-1.24,0.32-1.76,1.24c-0.08,0.14-0.08,0.32,0.02,0.45c0.17,0.23,0.58,0.5,1.63,0.43
						c1.71-0.13,0.57,3.8,0.57,3.8s-0.85,3.48-5.68,2.47v-1.07c0,0,2.86,0.21,3.99-1.17c0.27-0.34,0.09-0.86-0.34-0.95
						c-0.01,0-0.01,0-0.02,0l-0.81-0.03c0,0-0.91-0.11-0.83-1.68c0.08-1.56,1.03-3.82,1.03-3.82S289.16,76.49,290.68,75.85z"/>
				</g>
			</g>
			<g>
				<g>
					<path class="st1" d="M219.41,95.69l0.79,0.4c0,0,1.09-2.25,1.35-4.44c0.02-0.19,0.03-0.39,0.03-0.59
						c-0.02-1.63-0.19-9.54-1.59-16.49l-1.31,3.48c-0.26,0.7-0.33,1.46-0.19,2.19c0.3,1.6,0.84,4.72,1.06,7.84
						C219.86,92.55,219.41,95.69,219.41,95.69z"/>
				</g>
				<g>
					<path class="st1" d="M215.74,85.99l-0.95-6.04c0-0.37,0.36-0.15,0.36-0.15l0.01,0.14l0.34,0.11c0.57-1.48,0.73-2.95,0.77-3.56
						c0.01-0.17-0.08-0.32-0.23-0.4c-0.65-0.33-1.6-1.15-1.6-1.15c-0.49-0.4-0.28-1.34-0.28-1.34l-0.28-0.23h-0.47l-1.09,3.19
						l-0.17,1.51l1.04,0.87l1.64,11.52l-5.23,0.05c0.48-5.27-1.12-6.86-1.12-6.86c-2.4-2.73-5.49,0.49-5.49,0.49l-6.51,5.62
						c-1.57,1.12-2.46,0.77-2.94,0.27c-0.33-0.35-0.49-0.82-0.47-1.29l0.07-3.21h-0.9c-0.17,2.15-0.77,3.36-1.36,4.03
						c-0.47,0.54-1.15,0.84-1.87,0.86l-1.67,0.05v-2.14c-0.06-2.09-0.99-3.81-0.99-3.81s-1.31-2.55-2.94-0.69
						c-0.79,0.9-1.3,2.2-1.62,3.31c-0.41,1.41-0.55,2.89-0.36,4.35c0.13,0.99,0.4,2.03,0.97,2.48c1.23,0.96,2.59,0.49,2.59,0.49
						c0.54-0.08,0.35,0.3,0.35,0.3s-2.4,3.07-4.25,3.96c-0.46,0.22-0.92,0.34-1.35,0.39c-1.06,0.12-2.12-0.19-2.99-0.81l-1.71-1.21
						l-0.54,0.97l1.85,1.66c3.81,3.26,5.14,2.7,5.14,2.7c4.25-0.87,5.52-6.36,5.75-7.34c0.02-0.09,0.1-0.15,0.19-0.15l2.17-0.02
						c1.59-0.45,2.64-2.53,2.64-2.53c0.47,2.64,2.24,2.6,2.24,2.6h21.79v-4.75L215.74,85.99z M185.76,90.42c0,0-1.78,0.2-2.4-0.72
						c-0.22-0.33-0.55-0.89-0.09-1.58c0,0,0.69-1.05,1.64-0.22C185.88,88.73,185.76,90.42,185.76,90.42z M207.76,88.93
						c-0.11,0.57-0.68,1.31-2.85,1.49h-5.48v-0.21c0,0,5.09-5.51,8.04-2.24C207.71,88.23,207.83,88.59,207.76,88.93z"/>
				</g>
			</g>
			<g>
				<g>
					<polygon class="st1" points="137.38,106.11 138.64,104.22 140.09,105.43 140.21,105.43 141.28,103.86 142.98,105.11 
						141.66,106.97 140.28,105.84 140.13,105.84 139.09,107.22 					"/>
				</g>
				<g>
					<path class="st1" d="M136.42,88.92l0.81,0.72c0,0-3.64,4.26-2.27,7.86s10.57,0.73,10.57,0.73s0.98-0.54-0.13-0.9
						s-3.13-0.23-3.13-0.23s-1.28-0.02-0.74-1.45c0.53-1.43,1-2.58,1-2.58s1.45-2.53,4.36-2.55c2.46-0.02,5.87-0.01,6.87,0
						c0.15,0,0.26-0.13,0.24-0.28l-1.65-11.11c-0.02-0.13-0.09-0.25-0.19-0.34l-0.57-0.47c-0.1-0.09-0.16-0.22-0.14-0.35l0.16-1.58
						c0.01-0.09,0.03-0.19,0.06-0.28l1-2.95l0.62,0.38v1c0,0,0.85,1.1,2.05,1.62c0.09,0.04,0.15,0.12,0.15,0.22
						c0,0.47-0.09,1.89-0.83,3.73l-0.3-0.11l0.01-0.25c0,0-0.3-0.21-0.32,0.21L155.48,90v4.96h-9.11c0,0-0.36,0.15-0.14,0.44
						c0.14,0.18,0.58,0.34,0.89,0.44c0.23,0.07,0.4,0.27,0.43,0.52c0.03,0.26,0.03,0.65-0.06,1.18c0,0-0.44,2.92-1.82,4.04
						c-1.38,1.13-6.07,1.64-6.07,1.64s-3.72,0.62-5.96-1.7c-2.23-2.32-0.4-7.07-0.4-7.07S134.64,91.13,136.42,88.92z"/>
				</g>
				<g>
					<path class="st1" d="M173.47,86.55c-0.37-1.01-0.85-2.02-1.41-2.63c-0.27-0.29-0.68-0.38-1.04-0.22
						c-0.57,0.24-1.48,0.94-2.59,2.9c-0.21,0.37-0.39,0.75-0.55,1.14c-0.12,0.3-0.26,0.68-0.37,1.04c-0.06,0.2-0.16,0.38-0.28,0.55
						c-0.31,0.39-0.93,1-1.88,1.08h-4.95c-0.23,0-0.46-0.1-0.6-0.27c-0.17-0.2-0.36-0.55-0.48-1.16c-0.06-0.28-0.08-0.57-0.09-0.85
						l-0.12-5.91c0-0.12,0-0.25,0-0.37c0.02-0.93,0.04-5.47-1.54-7.34l-1.45,4.17c0,0,1.21,1.2,1.21,3c0,1.8,0.08,8.22,0.08,8.22
						s0,5.09,2.78,5.06h4.41c0,0,2.07,0.24,3.21-2.22c0,0,3.61,2.3,6.58,2.23v-3.28C174.37,89.93,174.07,88.19,173.47,86.55z
						 M171.2,90.15c-0.55-0.2-1.49-0.66-1.93-0.88c-0.15-0.07-0.22-0.24-0.18-0.39c0.12-0.47,0.42-1.27,0.98-1.3
						c0.75-0.03,1.76,2.21,1.76,2.21S171.94,90.42,171.2,90.15z"/>
				</g>
			</g>
		</g>
	</g>
</g>
</svg>
